inDegrees=no
num_controls=7
num_derivatives=13
num_iterations=156
num_multipliers=7
num_parameters=0
num_slacks=7
num_states=26
objective=5.401337
objective_accelerations=0.538449
objective_balance=0.099088
objective_effort=0.413114
objective_height=4.309603
objective_ligament=0.041084
solver_duration=1760.243330
status=Solve_Succeeded
success=true
DataType=double
version=3
OpenSimVersion=4.4-2022-07-23-0e9fedc
endheader
time	/jointset/ground_pelvis/pelvis_tilt/value	/jointset/ground_pelvis/pelvis_tx/value	/jointset/ground_pelvis/pelvis_ty/value	/jointset/hip_l/hip_flexion_l/value	/jointset/hip_l/hip_adduction_l/value	/jointset/hip_l/hip_rotation_l/value	/jointset/back/lumbar_extension/value	/jointset/patellofemoral_l/patellar_flexion_l/value	/jointset/knee_l/knee_flexion_l/value	/jointset/knee_l/knee_adduction_l/value	/jointset/knee_l/knee_rotation_l/value	/jointset/ankle_l/ankle_angle_l/value	/jointset/subtalar_l/subtalar_angle_l/value	/jointset/ground_pelvis/pelvis_tilt/speed	/jointset/ground_pelvis/pelvis_tx/speed	/jointset/ground_pelvis/pelvis_ty/speed	/jointset/hip_l/hip_flexion_l/speed	/jointset/hip_l/hip_adduction_l/speed	/jointset/hip_l/hip_rotation_l/speed	/jointset/back/lumbar_extension/speed	/jointset/patellofemoral_l/patellar_flexion_l/speed	/jointset/knee_l/knee_flexion_l/speed	/jointset/knee_l/knee_adduction_l/speed	/jointset/knee_l/knee_rotation_l/speed	/jointset/ankle_l/ankle_angle_l/speed	/jointset/subtalar_l/subtalar_angle_l/speed	/forceset/tau_hip_flexion_l	/forceset/tau_hip_adduction_l	/forceset/tau_hip_rotation_l	/forceset/tau_knee_flexion_l	/forceset/tau_ankle_angle_l	/forceset/tau_subtalar_angle_l	/forceset/tau_lumbar_extension	lambda_cid13_p0	lambda_cid13_p1	lambda_cid13_p2	lambda_cid13_p3	lambda_cid13_p4	lambda_cid13_p5	lambda_cid14_p0	/jointset/ground_pelvis/pelvis_tilt/accel	/jointset/ground_pelvis/pelvis_tx/accel	/jointset/ground_pelvis/pelvis_ty/accel	/jointset/hip_l/hip_flexion_l/accel	/jointset/hip_l/hip_adduction_l/accel	/jointset/hip_l/hip_rotation_l/accel	/jointset/back/lumbar_extension/accel	/jointset/patellofemoral_l/patellar_flexion_l/accel	/jointset/knee_l/knee_flexion_l/accel	/jointset/knee_l/knee_adduction_l/accel	/jointset/knee_l/knee_rotation_l/accel	/jointset/ankle_l/ankle_angle_l/accel	/jointset/subtalar_l/subtalar_angle_l/accel	gamma_cid13_p0	gamma_cid13_p1	gamma_cid13_p2	gamma_cid13_p3	gamma_cid13_p4	gamma_cid13_p5	gamma_cid14_p0
1	-0.639522557419777	-0.1114018665813329	0.6294520796438052	1.839995899864676	-0.3002271966538776	0.108665261070888	-0.4363304449319297	1.120895454361187	1.120895454361187	-0.1745298801441921	0.1745319014676756	0.1126715953769075	-0.02874577308923183	-0.01055117030799094	0.0007086907588308727	-0.003144162682576567	0.01638711489888106	0.0005985381884047265	0.003204312863015608	-9.699184968780398e-06	0.008539577874760895	0.008539577874760895	-1.237267751901232e-06	8.333996658664293e-06	0.003345201034694604	0.001251647478406779	-0.4286349043956894	0.01654519609743499	-0.01891470909042897	-0.230129853785815	0.09742758620403512	0.03809579274303625	0.3467124915205872	-14.01841470297807	-14.49141282123076	2.365870346755156	9.431082378201928	-719.3002180140968	-46.39660551075639	-3.008824163954278	1.907397436514518	0.2579247465647252	1.520997855235727	-5.916111175680288	-0.2928523283085647	-1.605210433846861	-0.03271659126838796	-4.417783444401179	-4.417783444401181	-0.03869169929450757	0.01547112173485073	-0.6834868130144811	-0.4100617026777663	3.184097793381531e-10	2.724246179165234e-09	-5.270462007293435e-09	8.210758629866576e-10	4.945470908416705e-10	-1.228058529274868e-09	1.189863670248317e-09
1.01	-0.6395334735402621	-0.1113819193142711	0.6294966004102651	1.839864880705752	-0.3002350336357572	0.1086164098130191	-0.4363311395409988	1.120760108482075	1.120760108482075	-0.1745299841671735	0.1745320791767344	0.1126710812101373	-0.02875281059168866	0.008358247355401003	0.003283399813573435	0.01204912900290108	-0.04258936541437549	-0.002161652781636296	-0.01297481139404329	-0.0001016209592916018	-0.03561780601628358	-0.03561780601628352	-1.640631387274675e-05	2.167773267300018e-05	-0.003448368187267004	-0.002654264231673631	-0.4287573705127392	0.01658390022533442	-0.0189202902916228	-0.2300855187370511	0.09744467595789334	0.03813227855626437	0.3468526267886517	-14.014886706811	-14.5098808219248	2.371104261069102	9.369203173257041	-719.3862965855257	-46.42637433169221	-3.01397560206635	1.881258919760763	0.2576404853751017	1.518615679748889	-5.888179586781447	-0.2669616648063292	-1.624303517662731	0.00671027991962406	-4.416073045301151	-4.41607304530115	0.0175433191550632	-0.00656719554060406	-0.6773421461709896	-0.3801242752204567	-3.665445395336003e-09	-5.337645707912089e-09	1.528282138580313e-08	4.594094538995739e-09	-5.438607711244899e-09	1.046240469135765e-08	-3.275035483758853e-09
1.02	-0.6393555864864116	-0.1113361456565726	0.6296930782644887	1.839144144118169	-0.3002703443640282	0.1084057592933742	-0.4363319253177244	1.120182917327284	1.120182917327283	-0.1745301453153309	0.1745322236841385	0.1126026213172707	-0.02879876088525576	0.02720946455916229	0.005873968886159279	0.02724725487018309	-0.1015563708329561	-0.004896211089855681	-0.0291555394921955	-2.793271626028341e-05	-0.07982947726113128	-0.07982947726113128	-1.266230295598272e-05	1.693665674208686e-06	-0.01024394418458821	-0.006530910743645197	-0.4288798366297891	0.01662260435323394	-0.01892587149281658	-0.2300411836882874	0.09746176571175172	0.03816876436949259	0.3469927620567164	-14.01847283991956	-14.5272262546218	2.376299764212166	9.330570463436759	-719.5658908544311	-46.42970937357271	-3.0359400253105	1.895757344588387	0.2610967501333815	1.521964691596601	-5.91421619674505	-0.2877257959442373	-1.60553120206554	0.0004054122024400742	-4.428640915161849	-4.42864091516185	-0.03490908788698585	0.008805561132228721	-0.6838881680864012	-0.4042086630559979	-5.830007201605068e-09	-1.519658822795538e-08	3.769820057894896e-08	2.969964432527242e-09	-9.17143550347903e-09	2.362198159447157e-08	-8.64379497387521e-09
1.03	-0.6389892008791765	-0.1112643858528836	0.6300414483750327	1.837833867076117	-0.3003328805799925	0.1080333938177639	-0.4363316425701242	1.11916371252311	1.11916371252311	-0.1745302394818828	0.1745321154874694	0.1124662071763133	-0.02888333902340907	0.04608558350999712	0.008480733583875997	0.0424162614880994	-0.1604890130191234	-0.007606635230791747	-0.04530921749924315	6.262031714358421e-05	-0.1239827423976867	-0.1239827423976867	-6.782295426944417e-06	-1.781434440180791e-05	-0.01703762893248602	-0.01037950797952952	-0.4283619878775149	0.01668752475880394	-0.01893906090499346	-0.2298400185590254	0.09745409144046838	0.03825516767344719	0.3466415219230316	-13.98942895013877	-14.57602732709328	2.391151315289713	9.287671733455616	-719.0925637398016	-46.4839099483518	-3.074955507861336	1.88622687092967	0.2608778374032689	1.512790185464724	-5.881286123856277	-0.2620473451868314	-1.619047462540797	0.01010096103735976	-4.404355299561112	-4.404355299561113	0.0182394247114771	-0.006515522991934058	-0.6769198106703835	-0.3744070837970004	-7.976004789829172e-09	-2.507386799935549e-08	6.013258074964634e-08	1.29076137929874e-09	-1.288181097928609e-08	3.679654945352919e-08	-1.402177752864575e-08
1.04	-0.6384335165423134	-0.111166476100655	0.630541192859471	1.835934564033342	-0.30042239036177	0.1074997392895799	-0.4363311101497644	1.117703837870239	1.117703837870239	-0.1745302942724316	0.1745319749025165	0.1122618939513712	-0.02900624749990971	0.06506921048477758	0.01110395859409079	0.05752212964903897	-0.2193615709774394	-0.01029092425246935	-0.06141335000694768	2.200183566744647e-05	-0.1679634470005913	-0.1679634470005914	-4.7871023527758e-06	-4.7839910546078e-06	-0.02382376098154039	-0.0141969784131079	-0.4278441391252407	0.01675244516437393	-0.01895225031717033	-0.2296388534297635	0.09744641716918503	0.03834157097740179	0.3462902817893468	-13.96746639173298	-14.62374706394358	2.40601156484227	9.267490982591557	-718.7124729450306	-46.5122106003046	-3.131304359760445	1.91725894937751	0.2643888126329969	1.509337000201255	-5.902199351174801	-0.2824987720925445	-1.595622102196917	-0.02582889077356105	-4.394128808431695	-4.394128808431695	-0.03568605077796023	0.01531323381686251	-0.6823776283177151	-0.3979833025948088	-1.112047914688666e-08	-3.297307478158736e-08	7.971068766118518e-08	3.220420924560318e-09	-1.767379806350541e-08	4.733341182171986e-08	-1.834818621999148e-08
1.05	-0.6376876805045552	-0.1110422451074862	0.6311916126179775	1.833447135392868	-0.3005385399681068	0.106805401296736	-0.4363313342018505	1.115805026616451	1.115805026616451	-0.1745303689667576	0.174532029920716	0.1119897014436288	-0.02916710390748214	0.08409353535452439	0.01374561385661663	0.07254452848130467	-0.2780837881830626	-0.01292553957597728	-0.07743769809912585	-5.786882222485473e-05	-0.2117686484425819	-0.211768648442582	-7.458116226388074e-06	1.063259958134712e-05	-0.03061822595548188	-0.01795979168748558	-0.427044785429712	0.01686157580824236	-0.01898068217016723	-0.2293916754782791	0.09754754603513806	0.03848121875108323	0.3457950740437611	-13.8935597118661	-14.70781833018437	2.431387469645467	9.18062625630454	-718.0924756586954	-46.60361987251007	-3.20547628754125	1.894348009189302	0.2645610288067569	1.496092740431995	-5.851180065313295	-0.2519345855448945	-1.603378203457275	0.002275361300351279	-4.3691879432131	-4.369187943213101	0.01783782519118927	-0.006140886575788046	-0.6785030011504862	-0.3632589078994688	-1.429615590297018e-08	-4.081046678290774e-08	9.919953603337535e-08	5.262857426024691e-09	-2.24995855104876e-08	5.778784589332095e-08	-2.264173322810518e-08
1.06	-0.6367517354674163	-0.1108914961325433	0.6319917366479452	1.830373695148326	-0.3006806340622915	0.1059513124148246	-0.4363320886575959	1.113469068922017	1.113469068922018	-0.1745303912808455	0.1745320797531693	0.1116494598723034	-0.02936515416140639	0.1030910103609127	0.01640755494891765	0.08746298394128126	-0.3365638917909747	-0.0154798218220843	-0.09336352782046436	-8.40788962205084e-05	-0.255392735129787	-0.2553927351297871	5.688945230040352e-06	-5.821140292693618e-06	-0.03743357369814825	-0.02163574768347214	-0.426245431734183	0.0169707064521108	-0.0190091140231641	-0.2291444975267947	0.09764867490109126	0.03862086652476467	0.3452998662981752	-13.82667110945877	-14.79089193975264	2.456868345588034	9.115672912572347	-717.5650035616947	-46.67019409195264	-3.298037511326251	1.911888976705819	0.2684459785880309	1.488548325743431	-5.853776631632581	-0.2664321566123611	-1.57591842802898	-0.0150967739942314	-4.357905857474582	-4.357905857474582	-0.03252243571195212	0.008939167714863982	-0.6865541820626921	-0.3806118469165856	-1.82459758130908e-08	-4.995861580735512e-08	1.17188671936466e-07	8.602905597688772e-09	-2.809779780672292e-08	6.75318935977989e-08	-2.687877695283991e-08
1.07	-0.6356259988713794	-0.110713934599755	0.6329405166528695	1.826716632764269	-0.3008479073097732	0.1049384291084769	-0.4363322962083077	1.110697789453518	1.110697789453518	-0.1745302818603153	0.1745319350687359	0.1112410343087179	-0.02959955391650592	0.1220449446261887	0.01911707469837829	0.1022748926882045	-0.3948099876804461	-0.01796290839593646	-0.1092009413941148	0.0001076008581944234	-0.2988326798956851	-0.2988326798956855	1.548052366151003e-05	-1.820696726000036e-05	-0.04424752819134242	-0.02522955104129744	-0.4256499894628264	0.01715873008719682	-0.01904944880925247	-0.2287735967151884	0.09786583324323991	0.03881601687118233	0.3450930074788721	-13.72288970734482	-14.90891525158975	2.492930215084995	8.889883283693797	-717.1511573991512	-46.77813384012423	-3.408273333551138	1.885438369805257	0.2740558871759	1.474786668691763	-5.80423989631524	-0.2374726017062115	-1.5858513695965	0.0460551658072377	-4.332460702549326	-4.332460702549372	0.01761045152293509	-0.005623254159527028	-0.6782139820560728	-0.3465732652855937	-2.223697355055382e-08	-5.917648595005396e-08	1.350980358997109e-07	1.201197566670391e-08	-3.373709653111e-08	7.723815479338732e-08	-3.111281518377789e-08
